<mxfile host="app.diagrams.net" modified="2024-01-16T10:08:26.280Z" agent="Mozilla/5.0 (X11; Linux x86_64) AppleWebKit/537.36 (KHTML, like Gecko) SamsungBrowser/23.1 Chrome/115.0.0.0 Safari/537.36" etag="il8WbGJqBgdscOfI81Tx" version="22.1.18" type="github">
  <diagram name="第 1 页" id="gobGHdvSGzKa87EZd8Xv">
    <mxGraphModel dx="660" dy="338" grid="1" gridSize="10" guides="1" tooltips="1" connect="1" arrows="1" fold="1" page="1" pageScale="1" pageWidth="827" pageHeight="1169" math="0" shadow="0">
      <root>
        <mxCell id="0" />
        <mxCell id="1" parent="0" />
        <mxCell id="3efFGq1Y4jRRoopbM7L9-2" value="" style="triangle;whiteSpace=wrap;html=1;" vertex="1" parent="1">
          <mxGeometry x="160" y="160" width="60" height="80" as="geometry" />
        </mxCell>
        <mxCell id="3efFGq1Y4jRRoopbM7L9-3" value="" style="endArrow=none;html=1;rounded=0;" edge="1" parent="1">
          <mxGeometry width="50" height="50" relative="1" as="geometry">
            <mxPoint x="220" y="199.57" as="sourcePoint" />
            <mxPoint x="300" y="199.57" as="targetPoint" />
          </mxGeometry>
        </mxCell>
        <mxCell id="3efFGq1Y4jRRoopbM7L9-4" value="" style="shape=cylinder3;whiteSpace=wrap;html=1;boundedLbl=1;backgroundOutline=1;size=15;rotation=90;" vertex="1" parent="1">
          <mxGeometry x="447" y="35" width="37.5" height="330" as="geometry" />
        </mxCell>
      </root>
    </mxGraphModel>
  </diagram>
</mxfile>
